# xmcd CD database file
#
# Track frame offsets:
#	150
#	21296
#	48053
#	72409
#	95449
#	113579
#	139222
#	172178
#	196341
#	202494
#	240431
#	277498
#	312215
#
# Disc length: 4391 seconds
#
# Revision: 0
# Processed by: cddbd v1.4b41PL1 Copyright (c) Steve Scherf et al.
# Submitted via: Feurio! 1.61 - http://www.feurio.com
#
DISCID=c611250d
DTITLE=Hillman´s Blues Band - Live
DYEAR=1900
DGENRE=
TTITLE0=Hot Day In Heaven
TTITLE1=Take Me In Your Feeling
TTITLE2=Little Johnny
TTITLE3=Half Of All
TTITLE4=Last Night
TTITLE5=Devil In Mind
TTITLE6=Texas Hot Shot
TTITLE7=Easy Life
TTITLE8=Saxalone
TTITLE9=Whisky Drinkin´Erwin
TTITLE10=Rock In My Soul
TTITLE11=Hoochie Coochie Man
TTITLE12=The House Is Rockin´
EXTD=
EXTT0=
EXTT1=
EXTT2=
EXTT3=
EXTT4=
EXTT5=
EXTT6=
EXTT7=
EXTT8=
EXTT9=
EXTT10=
EXTT11=
EXTT12=
PLAYORDER=
